<?xml version="1.0" encoding="iso-8859-1"?>
<!-- Uploaded to: SVG Repo, www.svgrepo.com, Transformed by: SVG Repo Tools -->
<svg fill="#000000" height="800px" width="800px" version="1.1" id="Layer_1" xmlns="http://www.w3.org/2000/svg" xmlns:xlink="http://www.w3.org/1999/xlink" 
	 viewBox="0 0 512 512" xml:space="preserve">
<g>
	<g>
		<g>
			<path d="M16.168,255.997l0.002-1.121c0.013-4.465-3.597-8.094-8.062-8.107c-0.008,0-0.015,0-0.023,0
				c-4.455,0-8.071,3.606-8.084,8.062L0,256c0,4.466,3.619,8.083,8.084,8.083S16.168,260.462,16.168,255.997z"/>
			<path d="M19.922,298.713l-0.172-1.064c-0.715-4.406-4.854-7.394-9.274-6.685c-4.407,0.715-7.4,4.867-6.685,9.274l0.172,1.064
				c0.645,3.969,4.076,6.791,7.971,6.791c0.429,0,0.866-0.036,1.304-0.106C17.645,307.272,20.637,303.12,19.922,298.713z"/>
			<path d="M33.864,344.48c-2.065-3.958-6.949-5.496-10.907-3.426c-3.958,2.066-5.492,6.949-3.426,10.907l0.499,0.956
				c1.442,2.763,4.258,4.345,7.173,4.345c1.26,0,2.538-0.295,3.734-0.921c3.958-2.066,5.492-6.949,3.426-10.907L33.864,344.48z"/>
			<path d="M9.117,231.813c0.352,0.046,0.703,0.068,1.051,0.068c4.001,0,7.478-2.971,8.007-7.045
				C33.604,105.876,135.847,16.168,256,16.168c4.466,0,8.084-3.619,8.084-8.084S260.466,0,256,0
				C193.428,0,133.192,22.817,86.388,64.247C39.991,105.317,10.072,161.61,2.14,222.756C1.565,227.184,4.69,231.239,9.117,231.813z"
				/>
			<path d="M328.733,279.954c-4.029-1.908-8.854-0.192-10.768,3.842c-0.222,0.47-0.451,0.936-0.684,1.399
				c-2.009,3.987-0.406,8.848,3.58,10.858c1.167,0.589,2.409,0.868,3.633,0.868c2.956,0,5.804-1.628,7.225-4.447
				c0.292-0.581,0.578-1.163,0.857-1.75C334.487,286.688,332.768,281.866,328.733,279.954z"/>
			<path d="M492.077,213.287l0.172,1.064c0.645,3.969,4.074,6.791,7.971,6.791c0.429,0,0.866-0.034,1.304-0.106
				c4.408-0.715,7.4-4.868,6.685-9.274l-0.172-1.064c-0.716-4.405-4.853-7.394-9.274-6.685
				C494.355,204.728,491.363,208.88,492.077,213.287z"/>
			<path d="M478.136,167.52c1.442,2.763,4.258,4.345,7.173,4.345c1.26,0,2.538-0.295,3.734-0.921
				c3.958-2.066,5.492-6.949,3.426-10.907l-0.499-0.956c-2.065-3.958-6.949-5.495-10.907-3.426
				c-3.958,2.066-5.492,6.949-3.426,10.907L478.136,167.52z"/>
			<path d="M502.883,280.187c-4.415-0.577-8.483,2.548-9.057,6.977C478.396,406.124,376.153,495.832,256,495.832
				c-4.466,0-8.084,3.619-8.084,8.084c0,4.466,3.619,8.084,8.084,8.084c62.572,0,122.808-22.817,169.612-64.247
				c46.397-41.07,76.316-97.362,84.247-158.509C510.435,284.816,507.31,280.761,502.883,280.187z"/>
			<path d="M382.653,256c0-69.837-56.816-126.653-126.653-126.653S129.347,186.163,129.347,256S186.163,382.653,256,382.653
				S382.653,325.837,382.653,256z M145.516,256c0-60.922,49.563-110.484,110.484-110.484S366.484,195.078,366.484,256
				S316.922,366.484,256,366.484C195.078,366.484,145.516,316.922,145.516,256z"/>
			<path d="M503.916,247.917c-4.466,0-8.084,3.621-8.084,8.086l-0.002,1.121c-0.013,4.465,3.597,8.094,8.062,8.107
				c0.008,0,0.015,0,0.023,0c4.455,0,8.071-3.606,8.084-8.062L512,256C512,251.534,508.382,247.917,503.916,247.917z"/>
			<path d="M294.804,430.08v-6.565c18.541-4.266,36.049-11.521,52.202-21.63l4.648,4.649c15.133,15.129,39.751,15.128,54.879,0
				c15.129-15.13,15.129-39.748,0-54.879l-4.649-4.648c10.11-16.154,17.364-33.662,21.63-52.202h6.565
				c21.397,0,38.804-17.407,38.804-38.804s-17.407-38.804-38.804-38.804h-6.565c-4.266-18.541-11.521-36.049-21.63-52.202
				l4.649-4.648c15.129-15.13,15.129-39.748,0-54.879c-15.128-15.126-39.746-15.128-54.879,0l-4.648,4.649
				c-16.154-10.11-33.662-17.364-52.202-21.63V81.92c0-21.397-17.407-38.804-38.804-38.804s-38.804,17.407-38.804,38.804v6.565
				c-18.541,4.266-36.049,11.521-52.202,21.63l-4.648-4.649c-15.131-15.128-39.75-15.126-54.879,0
				c-15.129,15.13-15.129,39.748,0,54.879l4.649,4.648c-10.11,16.154-17.364,33.662-21.63,52.202H81.92
				c-21.397,0-38.804,17.407-38.804,38.804s17.407,38.804,38.804,38.804h6.565c4.266,18.541,11.521,36.049,21.63,52.202
				l-4.649,4.648c-15.129,15.13-15.129,39.748,0,54.879c15.129,15.128,39.747,15.129,54.879,0l4.648-4.649
				c16.154,10.11,33.662,17.364,52.202,21.63v6.565c0,21.397,17.407,38.804,38.804,38.804S294.804,451.477,294.804,430.08z
				 M233.364,430.08v-13.13c0-3.884-2.763-7.219-6.578-7.942c-20.995-3.983-40.616-12.112-58.318-24.164
				c-1.382-0.942-2.97-1.402-4.548-1.402c-2.086,0-4.156,0.804-5.719,2.367l-9.288,9.288c-8.824,8.826-23.185,8.828-32.011,0
				c-8.826-8.825-8.826-23.185,0-32.011l9.288-9.288c2.745-2.745,3.151-7.056,0.966-10.266
				c-12.052-17.701-20.181-37.322-24.164-58.318c-0.723-3.816-4.057-6.578-7.942-6.578H81.92c-12.481,0-22.636-10.155-22.636-22.636
				c0-12.481,10.155-22.636,22.636-22.636h13.131c3.884,0,7.219-2.763,7.942-6.578c3.983-20.995,12.112-40.616,24.164-58.318
				c2.185-3.209,1.78-7.519-0.966-10.266l-9.288-9.288c-8.826-8.825-8.826-23.185,0-32.011c8.826-8.828,23.187-8.826,32.011,0
				l9.288,9.288c2.748,2.746,7.057,3.151,10.266,0.966c17.701-12.052,37.322-20.181,58.318-24.164
				c3.816-0.723,6.578-4.057,6.578-7.942V81.92c0-12.481,10.155-22.636,22.636-22.636c12.481,0,22.636,10.155,22.636,22.636v13.131
				c0,3.884,2.763,7.219,6.578,7.942c20.995,3.983,40.616,12.112,58.318,24.164c3.208,2.186,7.519,1.78,10.266-0.966l9.288-9.288
				c8.824-8.826,23.186-8.828,32.011,0c8.826,8.825,8.826,23.186,0,32.011l-9.288,9.288c-2.745,2.745-3.151,7.056-0.966,10.266
				c12.052,17.701,20.181,37.322,24.164,58.318c0.723,3.816,4.057,6.578,7.942,6.578h13.129c12.481,0,22.636,10.155,22.636,22.636
				c0,12.481-10.155,22.636-22.636,22.636h-13.13c-3.884,0-7.219,2.763-7.942,6.578c-3.983,20.995-12.112,40.616-24.164,58.318
				c-2.185,3.209-1.78,7.519,0.966,10.266l9.288,9.288c8.826,8.825,8.826,23.186,0,32.011c-8.825,8.828-23.185,8.827-32.011,0
				l-9.288-9.288c-2.745-2.745-7.056-3.15-10.266-0.966c-17.701,12.052-37.322,20.181-58.318,24.164
				c-3.816,0.723-6.578,4.057-6.578,7.942v13.129c0,12.481-10.155,22.636-22.636,22.636
				C243.519,452.716,233.364,442.561,233.364,430.08z"/>
			<path d="M215.579,256c0,22.289,18.132,40.421,40.421,40.421s40.421-18.132,40.421-40.421S278.289,215.579,256,215.579
				S215.579,233.711,215.579,256z M280.253,256c0,13.372-10.88,24.253-24.253,24.253c-13.372,0-24.253-10.88-24.253-24.253
				c0-13.372,10.88-24.253,24.253-24.253C269.372,231.747,280.253,242.628,280.253,256z"/>
			<path d="M209.219,207.523c12.62-12.181,29.235-18.891,46.781-18.891c37.148,0,67.368,30.221,67.368,67.368
				c0,4.466,3.619,8.084,8.084,8.084s8.084-3.619,8.084-8.084c0-46.062-37.475-83.537-83.537-83.537
				c-21.758,0-42.36,8.32-58.01,23.426c-3.212,3.101-3.302,8.219-0.203,11.431C200.887,210.531,206.005,210.622,209.219,207.523z"/>
			<path d="M184.948,231.262c1.081,0.488,2.212,0.72,3.326,0.72c3.077,0,6.02-1.769,7.371-4.756c0.178-0.395,0.36-0.787,0.545-1.177
				c1.914-4.034,0.197-8.856-3.837-10.769c-4.03-1.914-8.855-0.196-10.769,3.837c-0.229,0.48-0.452,0.964-0.672,1.449
				C179.074,224.633,180.88,229.422,184.948,231.262z"/>
			<path d="M315.071,315.07c3.157-3.158,3.157-8.276,0-11.433c-3.158-3.156-8.276-3.156-11.433,0
				c-12.725,12.725-29.643,19.732-47.638,19.732c-37.147,0-67.368-30.221-67.368-67.368c0-4.466-3.618-8.084-8.084-8.084
				c-4.466,0-8.084,3.619-8.084,8.084c0,46.062,37.475,83.537,83.537,83.537C278.313,339.537,299.292,330.847,315.071,315.07z"/>
		</g>
	</g>
</g>
<g>
</g>
<g>
</g>
<g>
</g>
<g>
</g>
<g>
</g>
<g>
</g>
<g>
</g>
<g>
</g>
<g>
</g>
<g>
</g>
<g>
</g>
<g>
</g>
<g>
</g>
<g>
</g>
<g>
</g>
</svg>