<?xml version="1.0" encoding="iso-8859-1"?>
<!-- Generator: Adobe Illustrator 19.0.0, SVG Export Plug-In . SVG Version: 6.00 Build 0)  -->
<svg version="1.1" id="Layer_1" xmlns="http://www.w3.org/2000/svg" xmlns:xlink="http://www.w3.org/1999/xlink" x="0px" y="0px"
	 viewBox="0 0 512 512" style="enable-background:new 0 0 512 512;" xml:space="preserve">
<g>
	<g>
		<path d="M489.17,409.527H94.822V92.526c0-9.205-7.463-16.668-16.668-16.668H22.829c-9.205,0-16.668,7.463-16.668,16.668
			s7.463,16.668,16.668,16.668h38.655v317.001c0,9.205,7.463,16.668,16.668,16.668h22.074c-2.256,5.732-3.509,11.965-3.509,18.487
			c0,27.927,22.72,50.648,50.648,50.648s50.648-22.721,50.648-50.648c0-6.523-1.253-12.756-3.509-18.487h170.338
			c-2.256,5.732-3.509,11.965-3.509,18.487c0,27.927,22.72,50.648,50.648,50.648s50.649-22.721,50.649-50.648
			c0-6.523-1.253-12.756-3.509-18.487h30.048c9.205,0,16.668-7.463,16.668-16.668C505.838,416.99,498.376,409.527,489.17,409.527z
			 M147.367,478.663c-9.545,0-17.312-7.766-17.312-17.312s7.766-17.312,17.312-17.312s17.312,7.766,17.312,17.312
			C164.679,470.897,156.913,478.663,147.367,478.663z M411.984,478.663c-9.545,0-17.312-7.766-17.312-17.312
			s7.766-17.312,17.312-17.312s17.312,7.766,17.312,17.312C429.296,470.897,421.529,478.663,411.984,478.663z"/>
	</g>
</g>
<g>
	<g>
		<path d="M489.17,0H166.311c-9.205,0-16.668,7.463-16.668,16.668c0,14.447,0,314.854,0,329.301c0,9.205,7.463,16.668,16.668,16.668
			h322.86c9.205,0,16.668-7.463,16.668-16.668c0-14.447,0-314.854,0-329.301C505.838,7.463,498.376,0,489.17,0z M472.503,329.301
			h-0.001H182.98V197.987h289.523V329.301z M472.503,164.65H182.98V33.337h289.523V164.65z"/>
	</g>
</g>
<g>
</g>
<g>
</g>
<g>
</g>
<g>
</g>
<g>
</g>
<g>
</g>
<g>
</g>
<g>
</g>
<g>
</g>
<g>
</g>
<g>
</g>
<g>
</g>
<g>
</g>
<g>
</g>
<g>
</g>
</svg>
