<?xml version='1.0' encoding='utf-8'?>
<!DOCTYPE svg PUBLIC '-//W3C//DTD SVG 1.1//EN' 'http://www.w3.org/Graphics/SVG/1.1/DTD/svg11.dtd'>
<svg version="1.1" xmlns="http://www.w3.org/2000/svg" viewBox="0 0 512 512" xmlns:xlink="http://www.w3.org/1999/xlink" enable-background="new 0 0 512 512">
  <g>
    <path d="m492.3,433.2c-8.4-7.4-21.2-6.6-28.6,1.8-34,38.5-71.8,24.5-89.4,14.4 36.3-230.5-45.8-273.4-158.7-332.4-47.5-24.8-101.3-53-155.7-100.9-5.3-4.7-12.6-6.2-19.3-4.2-6.7,2-11.9,7.4-13.7,14.2-29.5,112.2-12.1,221.3 49.2,307.1 60.2,84.3 155.5,135.8 268.6,145.5 16.1,11.3 41,22.3 68.6,22.3 26.3,0 55-10 80.8-39.2 7.3-8.4 6.6-21.2-1.8-28.6zm-383.2-123.6c-48.5-67.8-65.8-152.5-50-241.5 48.7,38.3 95.6,62.8 137.7,84.8 103,53.8 163,85.2 141.6,260.2l-52.3-63.8 11-65.4c1.8-11-5.6-21.5-16.7-23.3-11-1.8-21.5,5.6-23.3,16.6l-5.1,30.5-70.4-85.9-39.4-59.8c-6.1-9.4-18.7-12-28.1-5.8-9.3,6.1-11.9,18.7-5.8,28l39.9,60.7c0.4,0.6 0.8,1.2 1.3,1.7l20.4,24.9-14.7,.2c-11.2,0.2-20.1,9.4-20,20.5 0.2,11.1 9.2,20 20.3,20 0.1,0 0.2,0 0.3,0l47-.7 98.2,119.9c-80.2-17-147.2-59.2-191.9-121.8z"/>
  </g>
</svg>
