<?xml version="1.0" encoding="iso-8859-1"?>
<!-- Generator: Adobe Illustrator 19.0.0, SVG Export Plug-In . SVG Version: 6.00 Build 0)  -->
<svg version="1.1" id="Capa_1" xmlns="http://www.w3.org/2000/svg" xmlns:xlink="http://www.w3.org/1999/xlink" x="0px" y="0px"
	 viewBox="0 0 480 480" style="enable-background:new 0 0 480 480;" xml:space="preserve">
<path id="XMLID_783_" d="M27.073,452.928c3.905,3.905,3.905,10.237,0,14.142l-10.001,10.001C15.119,479.024,12.559,480,10,480
	s-5.119-0.976-7.071-2.929c-3.905-3.905-3.905-10.237,0-14.143l10.001-10.001C16.836,449.023,23.168,449.023,27.073,452.928z
	 M12.93,27.073c1.953,1.953,4.512,2.929,7.071,2.929s5.119-0.977,7.071-2.929c3.905-3.905,3.905-10.237,0-14.142L17.072,2.929
	c-3.905-3.905-10.237-3.905-14.143,0s-3.905,10.237,0,14.143L12.93,27.073z M459.998,30.002c2.559,0,5.118-0.977,7.071-2.929
	l10.002-10.001c3.905-3.905,3.905-10.237,0-14.142c-3.904-3.905-10.234-3.905-14.143,0l-10.002,10.001
	c-3.905,3.905-3.905,10.237,0,14.142C454.88,29.026,457.439,30.002,459.998,30.002z M467.07,452.928
	c-3.906-3.905-10.238-3.905-14.143,0c-3.905,3.905-3.905,10.237,0,14.142l10.002,10.001c1.953,1.953,4.512,2.929,7.071,2.929
	s5.119-0.977,7.071-2.929c3.905-3.905,3.905-10.237,0-14.142L467.07,452.928z M427.07,412.927c3.905,3.905,3.905,10.237,0,14.142
	c-3.906,3.905-10.236,3.906-14.143,0l-60.053-60.052c-27.71,24.65-63.521,40.397-102.874,42.692V470c0,5.523-4.478,10-10,10
	c-5.523,0-10-4.477-10-10V409.71c-39.353-2.295-75.164-18.042-102.875-42.693l-60.052,60.052c-3.905,3.905-10.238,3.905-14.142,0
	c-3.905-3.905-3.905-10.237,0-14.142l60.052-60.052C88.333,325.164,72.586,289.353,70.291,250H10c-5.523,0-10-4.477-10-10
	s4.477-10,10-10h60.291c2.295-39.353,18.042-75.164,42.693-102.875L52.931,67.074c-3.905-3.905-3.905-10.237,0-14.142
	c3.904-3.905,10.237-3.905,14.142,0l60.052,60.052c27.71-24.65,63.522-40.398,102.875-42.693V10c0-5.523,4.477-10,10-10
	c5.522,0,10,4.477,10,10v60.291c39.353,2.295,75.164,18.042,102.874,42.692l60.053-60.052c3.905-3.905,10.237-3.904,14.143,0
	s3.905,10.237,0,14.142l-60.053,60.052c24.65,27.71,40.397,63.522,42.692,102.875H470c5.522,0,10,4.477,10,10s-4.478,10-10,10
	h-60.291c-2.295,39.353-18.042,75.165-42.692,102.875L427.07,412.927z M390,240c0-82.71-67.29-150-150-150
	c-82.71,0-150,67.29-150,150s67.29,150,150,150C322.71,390,390,322.711,390,240z M306.006,151.998
	c-4.416-3.318-10.686-2.425-14.002,1.99c-3.316,4.416-2.426,10.685,1.99,14.001C316.876,185.177,330,211.424,330,240
	c0,49.626-40.374,90-90,90c-5.523,0-10,4.477-10,10s4.477,10,10,10c60.654,0,110-49.346,110-110
	C350,205.074,333.965,172.998,306.006,151.998z M240,150c3.009,0,6.041,0.149,9.012,0.445c0.336,0.033,0.67,0.049,1,0.049
	c5.078,0,9.427-3.853,9.939-9.012c0.546-5.496-3.467-10.394-8.963-10.939C247.364,130.183,243.666,130,240,130
	c-5.523,0-10,4.477-10,10S234.477,150,240,150z"/>
<g>
</g>
<g>
</g>
<g>
</g>
<g>
</g>
<g>
</g>
<g>
</g>
<g>
</g>
<g>
</g>
<g>
</g>
<g>
</g>
<g>
</g>
<g>
</g>
<g>
</g>
<g>
</g>
<g>
</g>
</svg>
