<?xml version="1.0" encoding="iso-8859-1"?>
<!-- Generator: Adobe Illustrator 16.0.0, SVG Export Plug-In . SVG Version: 6.00 Build 0)  -->
<!DOCTYPE svg PUBLIC "-//W3C//DTD SVG 1.1//EN" "http://www.w3.org/Graphics/SVG/1.1/DTD/svg11.dtd">
<svg version="1.1" id="Capa_1" xmlns="http://www.w3.org/2000/svg" xmlns:xlink="http://www.w3.org/1999/xlink" x="0px" y="0px"
	 width="32px" height="32px" viewBox="0 0 32 32" style="enable-background:new 0 0 32 32;" xml:space="preserve">
<g>
	<g>
		<path d="M3.117,22.453c-0.068,0.289-3.065,8.024-3.065,8.024l0.004,0.013C0.022,30.588,0,30.69,0,30.798
			c0,0.534,0.434,0.968,0.968,0.968h2.839c0.533,0,0.967-0.434,0.967-0.968s-0.434-0.967-0.967-0.967H3.248
			c0.953-2.089,2.642-5.979,2.681-6.255c0.054-0.383,0.136-1.453,0.136-1.453l-2.742-2.921C3.323,19.203,3.186,22.165,3.117,22.453z
			"/>
		<path d="M5.192,4.245C5.184,4.289,5.174,4.331,5.167,4.376C4.89,6.265,6.169,8.022,8.015,8.294
			c1.848,0.271,3.577-1.046,3.854-2.937c0.042-0.292,0.044-0.58,0.015-0.859c0.218,0.005,0.354,0.008,0.383,0.004
			c0.238-0.021,0.427-0.03,0.456-0.291c0.017-0.347,0.004-0.292,0.011-0.344c0.019-0.302-0.159-0.273-0.355-0.301
			c-0.195-0.029-0.434-0.007-0.434-0.007S11.526-0.249,8,0.237C6.944,0.382,6.238,0.798,5.766,1.31
			C6.675,0.898,7.74,0.726,8.653,0.885c0.869,0.154,1.541,0.587,1.958,1.249c-0.286-0.229-0.612-0.414-0.967-0.54
			C9.291,1.368,8.914,1.25,8.596,1.195C7.543,1.006,6.285,1.292,5.339,1.889C4.703,2.996,4.828,4.23,4.828,4.23
			S4.965,4.235,5.192,4.245z M5.786,4.465c0.01-0.065,0.025-0.13,0.039-0.194c1.416,0.056,3.998,0.158,5.428,0.205
			c0.033,0.257,0.035,0.521-0.005,0.789C11.022,6.814,9.61,7.894,8.107,7.673C6.601,7.453,5.561,6.014,5.786,4.465z"/>
		<rect x="19.977" y="25.583" width="11.438" height="1.357"/>
		<rect x="19.966" y="23.28" width="11.438" height="1.356"/>
		<rect x="19.966" y="21.078" width="11.438" height="1.358"/>
		<rect x="19.971" y="19.009" width="11.438" height="1.358"/>
		<path d="M32,27.692H19.163V16.789c0-0.363-0.295-0.658-0.658-0.658h-2.453c-0.045-0.094-0.103-0.179-0.171-0.255l0.005-0.006
			c0,0-6.762-6.617-7.27-6.747c-0.507-0.13-2.283-0.57-2.527-0.621C5.845,8.449,5.448,8.409,5.298,8.944
			c-0.151,0.534-2.41,7.934-1.976,8.899c0.494,1.099,4.663,4.938,4.883,5.377c0.199,0.398,0.127,6.446,0.112,7.561
			c-0.001,0.02-0.006,0.038-0.006,0.059c0,0.017,0.004,0.03,0.004,0.046c0,0.045-0.001,0.071-0.001,0.071h0.009
			c0.059,0.479,0.461,0.85,0.955,0.85h2.839c0.534,0,0.967-0.433,0.967-0.967c0-0.533-0.433-0.967-0.967-0.967h-1.174
			c0.099-2.187,0.296-6.968,0.17-7.475c-0.165-0.658-3.142-4.21-3.142-4.21l1.331-4.842l5.02,4.088l0.004-0.006
			c0.196,0.181,0.454,0.292,0.739,0.292c0.276,0,0.525-0.104,0.718-0.272h2.062v10.244v0.78v0.7H19.1
			c-0.166,0.267-0.267,0.575-0.267,0.911c0,0.95,0.772,1.722,1.724,1.722c0.949,0,1.721-0.771,1.721-1.722
			c0-0.336-0.101-0.646-0.266-0.911h5.682c-0.115,0.231-0.207,0.597-0.207,0.87c0,0.95,0.771,1.724,1.722,1.724
			s1.724-0.772,1.724-1.724c0-0.273-0.051-0.639-0.164-0.87H32V27.692z M20.557,30.819c-0.404,0-0.734-0.33-0.734-0.734
			c0-0.405,0.33-0.733,0.734-0.733c0.405,0,0.734,0.328,0.734,0.733C21.291,30.489,20.962,30.819,20.557,30.819z M29.225,30.875
			c-0.429,0-0.773-0.346-0.773-0.772c0-0.194,0.078-0.365,0.195-0.501c0.068-0.092,0.156-0.162,0.267-0.204
			c0.096-0.043,0.2-0.068,0.312-0.068c0.428,0,0.773,0.347,0.773,0.773C29.997,30.53,29.65,30.875,29.225,30.875z"/>
	</g>
</g>
<g>
</g>
<g>
</g>
<g>
</g>
<g>
</g>
<g>
</g>
<g>
</g>
<g>
</g>
<g>
</g>
<g>
</g>
<g>
</g>
<g>
</g>
<g>
</g>
<g>
</g>
<g>
</g>
<g>
</g>
</svg>
